# xmcd CD database file
#
# Track frame offsets:
#	150
#	10995
#	28162
#	46387
#	70642
#	87960
#	100490
#	121072
#	139382
#	151800
#	169200
#	187715
#	202860
#	223192
#	246270
#	258875
#	271805
#	286237
#
# Disc length: 4110 seconds
#
# Revision: 4
# Processed by: cddbd v1.5.2PL0 Copyright (c) Steve Scherf et al.
# Submitted via: CDex 1.70beta2
#
DISCID=f8100c12
DTITLE=AGEMATSU Mika - MAXIMA
DYEAR=2005
DGENRE=Jazz
TTITLE0=Moliendo Café
TTITLE1=Pajaro Campana
TTITLE2=Mis Noches Sin  ti
TTITLE3=Imperio Guarani
TTITLE4=Tesorito
TTITLE5=Murmullo del angel
TTITLE6=Suenos sobre les Alas
TTITLE7=Soshunfu
TTITLE8=Hana
TTITLE9=Hamabe no Uta
TTITLE10=Recuerdos de la Alhambra
TTITLE11=Raindrops keep falling on my head
TTITLE12=Wath is a Youth
TTITLE13=Nuevo cinema paradisco theme d'amore
TTITLE14=La Bikina
TTITLE15=Quirpa
TTITLE16=Vino Blanco
TTITLE17=Cielito Lindo
EXTD=YEAR: 2005
EXTT0=
EXTT1=
EXTT2=
EXTT3=
EXTT4=
EXTT5=
EXTT6=
EXTT7=
EXTT8=
EXTT9=
EXTT10=
EXTT11=
EXTT12=
EXTT13=
EXTT14=
EXTT15=
EXTT16=
EXTT17=
PLAYORDER=
